<svg id="Layer_1" data-name="Layer 1" xmlns="http://www.w3.org/2000/svg" xmlns:xlink="http://www.w3.org/1999/xlink" width="704" height="704" viewBox="0 0 704 704"><defs><style>.cls-1{fill:none;}.cls-2{clip-path:url(#clip-path);}.cls-3{fill:#23292f;}.cls-4{fill:#fff;}</style><clipPath id="clip-path" transform="translate(-23 -23)"><rect class="cls-1" x="23" y="23" width="704" height="704"/></clipPath></defs><title>xrp-icon</title><g class="cls-2"><path class="cls-3" d="M375,727A352,352,0,1,0,126.1,623.9,352,352,0,0,0,375,727Z" transform="translate(-23 -23)"/><path class="cls-4" d="M503.79,225.09h52.93L446.66,334.9a102,102,0,0,1-144.2,0L192.71,225.09h52.87l83.6,83.41a64.62,64.62,0,0,0,91.33,0Z" transform="translate(-23 -23)"/><path class="cls-4" d="M245.33,530.51H192.71L303.15,420a102,102,0,0,1,144.2,0L558,530.51H505.18L421,446.41a64.62,64.62,0,0,0-91.33,0Z" transform="translate(-23 -23)"/></g></svg>